<svg width="1024" height="753" viewBox="0 0 1024 753" fill="none" xmlns="http://www.w3.org/2000/svg">
<g clip-path="url(#clip0_175_1867)">
<rect width="1024" height="753" fill="#121214"/>
<g opacity="0.2" filter="url(#filter0_f_175_1867)">
<ellipse cx="512.5" cy="52" rx="670.5" ry="350" fill="#338AF3"/>
</g>
<path d="M33.0349 288C34.5302 288 35.6622 288.63 36.4308 289.891C37.2134 291.138 37.6047 292.953 37.6047 295.336C37.6047 297.719 37.2134 299.541 36.4308 300.802C35.6622 302.063 34.5302 302.693 33.0349 302.693C31.5536 302.693 30.4216 302.063 29.639 300.802C28.8564 299.541 28.4651 297.719 28.4651 295.336C28.4651 292.967 28.8564 291.152 29.639 289.891C30.4216 288.63 31.5536 288 33.0349 288ZM29.9534 295.336C29.9534 297.026 30.1072 298.35 30.4146 299.306L35.0683 290.099C34.5791 289.448 33.9013 289.122 33.0349 289.122C32.0706 289.122 31.316 289.635 30.771 290.66C30.2259 291.672 29.9534 293.23 29.9534 295.336ZM33.0349 301.55C34.0131 301.55 34.7748 301.044 35.3198 300.033C35.8648 299.008 36.1373 297.442 36.1373 295.336C36.1373 293.549 35.9627 292.163 35.6133 291.18L30.9596 300.469C31.4627 301.19 32.1545 301.55 33.0349 301.55Z" fill="url(#paint0_linear_175_1867)" fill-opacity="0.6"/>
<path d="M34.2926 325.135H37.3741V326.236H29.3874V325.135H32.9511V313.455L29.5551 315.471L28.9682 314.536L33.1607 311.959H34.2926V325.135Z" fill="url(#paint1_linear_175_1867)" fill-opacity="0.6"/>
<path d="M33.0349 335.502C34.5302 335.502 35.6622 336.133 36.4308 337.393C37.2134 338.64 37.6047 340.455 37.6047 342.838C37.6047 345.221 37.2134 347.043 36.4308 348.304C35.6622 349.565 34.5302 350.195 33.0349 350.195C31.5536 350.195 30.4216 349.565 29.639 348.304C28.8564 347.043 28.4651 345.221 28.4651 342.838C28.4651 340.469 28.8564 338.654 29.639 337.393C30.4216 336.133 31.5536 335.502 33.0349 335.502ZM29.9534 342.838C29.9534 344.529 30.1072 345.852 30.4146 346.808L35.0683 337.601C34.5791 336.95 33.9013 336.624 33.0349 336.624C32.0706 336.624 31.316 337.137 30.771 338.162C30.2259 339.174 29.9534 340.732 29.9534 342.838ZM33.0349 349.052C34.0131 349.052 34.7748 348.546 35.3198 347.535C35.8648 346.51 36.1373 344.944 36.1373 342.838C36.1373 341.051 35.9627 339.665 35.6133 338.682L30.9596 347.971C31.4627 348.692 32.1545 349.052 33.0349 349.052Z" fill="url(#paint2_linear_175_1867)" fill-opacity="0.6"/>
<path d="M34.2926 372.637H37.3741V373.738H29.3874V372.637H32.9511V360.957L29.5551 362.973L28.9682 362.038L33.1607 359.461H34.2926V372.637Z" fill="url(#paint3_linear_175_1867)" fill-opacity="0.6"/>
<path d="M34.2926 396.388H37.3741V397.489H29.3874V396.388H32.9511V384.708L29.5551 386.724L28.9682 385.789L33.1607 383.212H34.2926V396.388Z" fill="url(#paint4_linear_175_1867)" fill-opacity="0.6"/>
<path d="M33.0349 406.755C34.5302 406.755 35.6622 407.386 36.4308 408.646C37.2134 409.893 37.6047 411.708 37.6047 414.091C37.6047 416.474 37.2134 418.296 36.4308 419.557C35.6622 420.818 34.5302 421.448 33.0349 421.448C31.5536 421.448 30.4216 420.818 29.639 419.557C28.8564 418.296 28.4651 416.474 28.4651 414.091C28.4651 411.722 28.8564 409.907 29.639 408.646C30.4216 407.386 31.5536 406.755 33.0349 406.755ZM29.9534 414.091C29.9534 415.782 30.1072 417.105 30.4146 418.061L35.0683 408.854C34.5791 408.203 33.9013 407.878 33.0349 407.878C32.0706 407.878 31.316 408.39 30.771 409.415C30.2259 410.427 29.9534 411.985 29.9534 414.091ZM33.0349 420.305C34.0131 420.305 34.7748 419.8 35.3198 418.788C35.8648 417.763 36.1373 416.197 36.1373 414.091C36.1373 412.304 35.9627 410.919 35.6133 409.935L30.9596 419.225C31.4627 419.945 32.1545 420.305 33.0349 420.305Z" fill="url(#paint5_linear_175_1867)" fill-opacity="0.6"/>
<path d="M34.2926 443.89H37.3741V444.992H29.3874V443.89H32.9511V432.21L29.5551 434.226L28.9682 433.291L33.1607 430.714H34.2926V443.89Z" fill="url(#paint6_linear_175_1867)" fill-opacity="0.6"/>
<path d="M33.0349 454.257C34.5302 454.257 35.6622 454.888 36.4308 456.149C37.2134 457.396 37.6047 459.211 37.6047 461.594C37.6047 463.977 37.2134 465.798 36.4308 467.059C35.6622 468.32 34.5302 468.95 33.0349 468.95C31.5536 468.95 30.4216 468.32 29.639 467.059C28.8564 465.798 28.4651 463.977 28.4651 461.594C28.4651 459.224 28.8564 457.409 29.639 456.149C30.4216 454.888 31.5536 454.257 33.0349 454.257ZM29.9534 461.594C29.9534 463.284 30.1072 464.607 30.4146 465.563L35.0683 456.356C34.5791 455.705 33.9013 455.38 33.0349 455.38C32.0706 455.38 31.316 455.892 30.771 456.918C30.2259 457.929 29.9534 459.488 29.9534 461.594ZM33.0349 467.807C34.0131 467.807 34.7748 467.302 35.3198 466.29C35.8648 465.265 36.1373 463.699 36.1373 461.594C36.1373 459.806 35.9627 458.421 35.6133 457.437L30.9596 466.727C31.4627 467.447 32.1545 467.807 33.0349 467.807Z" fill="url(#paint7_linear_175_1867)" fill-opacity="0.6"/>
<path d="M33.0349 478.008C34.5302 478.008 35.6622 478.639 36.4308 479.9C37.2134 481.147 37.6047 482.962 37.6047 485.345C37.6047 487.728 37.2134 489.549 36.4308 490.81C35.6622 492.071 34.5302 492.701 33.0349 492.701C31.5536 492.701 30.4216 492.071 29.639 490.81C28.8564 489.549 28.4651 487.728 28.4651 485.345C28.4651 482.975 28.8564 481.16 29.639 479.9C30.4216 478.639 31.5536 478.008 33.0349 478.008ZM29.9534 485.345C29.9534 487.035 30.1072 488.358 30.4146 489.314L35.0683 480.107C34.5791 479.456 33.9013 479.131 33.0349 479.131C32.0706 479.131 31.316 479.643 30.771 480.669C30.2259 481.68 29.9534 483.239 29.9534 485.345ZM33.0349 491.558C34.0131 491.558 34.7748 491.053 35.3198 490.041C35.8648 489.016 36.1373 487.451 36.1373 485.345C36.1373 483.557 35.9627 482.172 35.6133 481.188L30.9596 490.478C31.4627 491.198 32.1545 491.558 33.0349 491.558Z" fill="url(#paint8_linear_175_1867)" fill-opacity="0.6"/>
<path d="M34.2926 515.143H37.3741V516.245H29.3874V515.143H32.9511V503.464L29.5551 505.48L28.9682 504.544L33.1607 501.967H34.2926V515.143Z" fill="url(#paint9_linear_175_1867)" fill-opacity="0.6"/>
<path d="M33.0349 525.511C34.5302 525.511 35.6622 526.141 36.4308 527.402C37.2134 528.649 37.6047 530.464 37.6047 532.847C37.6047 535.23 37.2134 537.052 36.4308 538.312C35.6622 539.573 34.5302 540.204 33.0349 540.204C31.5536 540.204 30.4216 539.573 29.639 538.312C28.8564 537.052 28.4651 535.23 28.4651 532.847C28.4651 530.478 28.8564 528.663 29.639 527.402C30.4216 526.141 31.5536 525.511 33.0349 525.511ZM29.9534 532.847C29.9534 534.537 30.1072 535.86 30.4146 536.816L35.0683 527.61C34.5791 526.958 33.9013 526.633 33.0349 526.633C32.0706 526.633 31.316 527.145 30.771 528.171C30.2259 529.182 29.9534 530.741 29.9534 532.847ZM33.0349 539.061C34.0131 539.061 34.7748 538.555 35.3198 537.543C35.8648 536.518 36.1373 534.953 36.1373 532.847C36.1373 531.059 35.9627 529.674 35.6133 528.69L30.9596 537.98C31.4627 538.7 32.1545 539.061 33.0349 539.061Z" fill="url(#paint10_linear_175_1867)" fill-opacity="0.6"/>
<path d="M34.2926 562.645H37.3741V563.747H29.3874V562.645H32.9511V550.966L29.5551 552.982L28.9682 552.046L33.1607 549.469H34.2926V562.645Z" fill="url(#paint11_linear_175_1867)" fill-opacity="0.6"/>
<path d="M34.2926 586.396H37.3741V587.498H29.3874V586.396H32.9511V574.717L29.5551 576.733L28.9682 575.798L33.1607 573.221H34.2926V586.396Z" fill="url(#paint12_linear_175_1867)" fill-opacity="0.6"/>
<path d="M71.9651 335.502C73.4604 335.502 74.5924 336.133 75.361 337.393C76.1436 338.64 76.5349 340.455 76.5349 342.838C76.5349 345.221 76.1436 347.043 75.361 348.304C74.5924 349.565 73.4604 350.195 71.9651 350.195C70.4838 350.195 69.3518 349.565 68.5692 348.304C67.7866 347.043 67.3953 345.221 67.3953 342.838C67.3953 340.469 67.7866 338.654 68.5692 337.393C69.3518 336.133 70.4838 335.502 71.9651 335.502ZM68.8836 342.838C68.8836 344.529 69.0374 345.852 69.3448 346.808L73.9985 337.601C73.5093 336.95 72.8315 336.624 71.9651 336.624C71.0008 336.624 70.2462 337.137 69.7012 338.162C69.1561 339.174 68.8836 340.732 68.8836 342.838ZM71.9651 349.052C72.9433 349.052 73.705 348.546 74.25 347.535C74.795 346.51 75.0675 344.944 75.0675 342.838C75.0675 341.051 74.8928 339.665 74.5435 338.682L69.8898 347.971C70.3929 348.692 71.0847 349.052 71.9651 349.052Z" fill="url(#paint13_linear_175_1867)" fill-opacity="0.6"/>
<path d="M73.2228 372.637H76.3043V373.738H68.3176V372.637H71.8812V360.957L68.4853 362.973L67.8984 362.038L72.0909 359.461H73.2228V372.637Z" fill="url(#paint14_linear_175_1867)" fill-opacity="0.6"/>
<path d="M71.9651 383.004C73.4604 383.004 74.5924 383.635 75.361 384.895C76.1436 386.142 76.5349 387.957 76.5349 390.34C76.5349 392.723 76.1436 394.545 75.361 395.806C74.5924 397.067 73.4604 397.697 71.9651 397.697C70.4838 397.697 69.3518 397.067 68.5692 395.806C67.7866 394.545 67.3953 392.723 67.3953 390.34C67.3953 387.971 67.7866 386.156 68.5692 384.895C69.3518 383.635 70.4838 383.004 71.9651 383.004ZM68.8836 390.34C68.8836 392.031 69.0374 393.354 69.3448 394.31L73.9985 385.103C73.5093 384.452 72.8315 384.126 71.9651 384.126C71.0008 384.126 70.2462 384.639 69.7012 385.664C69.1561 386.676 68.8836 388.234 68.8836 390.34ZM71.9651 396.554C72.9433 396.554 73.705 396.049 74.25 395.037C74.795 394.012 75.0675 392.446 75.0675 390.34C75.0675 388.553 74.8928 387.168 74.5435 386.184L69.8898 395.474C70.3929 396.194 71.0847 396.554 71.9651 396.554Z" fill="url(#paint15_linear_175_1867)" fill-opacity="0.6"/>
<path d="M71.9651 406.755C73.4604 406.755 74.5924 407.386 75.361 408.646C76.1436 409.893 76.5349 411.708 76.5349 414.091C76.5349 416.474 76.1436 418.296 75.361 419.557C74.5924 420.818 73.4604 421.448 71.9651 421.448C70.4838 421.448 69.3518 420.818 68.5692 419.557C67.7866 418.296 67.3953 416.474 67.3953 414.091C67.3953 411.722 67.7866 409.907 68.5692 408.646C69.3518 407.386 70.4838 406.755 71.9651 406.755ZM68.8836 414.091C68.8836 415.782 69.0374 417.105 69.3448 418.061L73.9985 408.854C73.5093 408.203 72.8315 407.878 71.9651 407.878C71.0008 407.878 70.2462 408.39 69.7012 409.415C69.1561 410.427 68.8836 411.985 68.8836 414.091ZM71.9651 420.305C72.9433 420.305 73.705 419.8 74.25 418.788C74.795 417.763 75.0675 416.197 75.0675 414.091C75.0675 412.304 74.8928 410.919 74.5435 409.935L69.8898 419.225C70.3929 419.945 71.0847 420.305 71.9651 420.305Z" fill="url(#paint16_linear_175_1867)" fill-opacity="0.6"/>
<path d="M73.2228 443.89H76.3043V444.992H68.3176V443.89H71.8812V432.21L68.4853 434.226L67.8984 433.291L72.0909 430.714H73.2228V443.89Z" fill="url(#paint17_linear_175_1867)" fill-opacity="0.6"/>
<path d="M71.9651 454.257C73.4604 454.257 74.5924 454.888 75.361 456.149C76.1436 457.396 76.5349 459.211 76.5349 461.594C76.5349 463.977 76.1436 465.798 75.361 467.059C74.5924 468.32 73.4604 468.95 71.9651 468.95C70.4838 468.95 69.3518 468.32 68.5692 467.059C67.7866 465.798 67.3953 463.977 67.3953 461.594C67.3953 459.224 67.7866 457.409 68.5692 456.149C69.3518 454.888 70.4838 454.257 71.9651 454.257ZM68.8836 461.594C68.8836 463.284 69.0374 464.607 69.3448 465.563L73.9985 456.356C73.5093 455.705 72.8315 455.38 71.9651 455.38C71.0008 455.38 70.2462 455.892 69.7012 456.918C69.1561 457.929 68.8836 459.488 68.8836 461.594ZM71.9651 467.807C72.9433 467.807 73.705 467.302 74.25 466.29C74.795 465.265 75.0675 463.699 75.0675 461.594C75.0675 459.806 74.8928 458.421 74.5435 457.437L69.8898 466.727C70.3929 467.447 71.0847 467.807 71.9651 467.807Z" fill="url(#paint18_linear_175_1867)" fill-opacity="0.6"/>
<path d="M73.2228 491.392H76.3043V492.494H68.3176V491.392H71.8812V479.713L68.4853 481.728L67.8984 480.793L72.0909 478.216H73.2228V491.392Z" fill="url(#paint19_linear_175_1867)" fill-opacity="0.6"/>
<path d="M71.9651 501.76C73.4604 501.76 74.5924 502.39 75.361 503.651C76.1436 504.898 76.5349 506.713 76.5349 509.096C76.5349 511.479 76.1436 513.301 75.361 514.561C74.5924 515.822 73.4604 516.453 71.9651 516.453C70.4838 516.453 69.3518 515.822 68.5692 514.561C67.7866 513.301 67.3953 511.479 67.3953 509.096C67.3953 506.726 67.7866 504.911 68.5692 503.651C69.3518 502.39 70.4838 501.76 71.9651 501.76ZM68.8836 509.096C68.8836 510.786 69.0374 512.109 69.3448 513.065L73.9985 503.859C73.5093 503.207 72.8315 502.882 71.9651 502.882C71.0008 502.882 70.2462 503.394 69.7012 504.42C69.1561 505.431 68.8836 506.99 68.8836 509.096ZM71.9651 515.31C72.9433 515.31 73.705 514.804 74.25 513.792C74.795 512.767 75.0675 511.202 75.0675 509.096C75.0675 507.308 74.8928 505.923 74.5435 504.939L69.8898 514.229C70.3929 514.949 71.0847 515.31 71.9651 515.31Z" fill="url(#paint20_linear_175_1867)" fill-opacity="0.6"/>
<path d="M71.9651 525.511C73.4604 525.511 74.5924 526.141 75.361 527.402C76.1436 528.649 76.5349 530.464 76.5349 532.847C76.5349 535.23 76.1436 537.052 75.361 538.312C74.5924 539.573 73.4604 540.204 71.9651 540.204C70.4838 540.204 69.3518 539.573 68.5692 538.312C67.7866 537.052 67.3953 535.23 67.3953 532.847C67.3953 530.478 67.7866 528.663 68.5692 527.402C69.3518 526.141 70.4838 525.511 71.9651 525.511ZM68.8836 532.847C68.8836 534.537 69.0374 535.86 69.3448 536.816L73.9985 527.61C73.5093 526.958 72.8315 526.633 71.9651 526.633C71.0008 526.633 70.2462 527.145 69.7012 528.171C69.1561 529.182 68.8836 530.741 68.8836 532.847ZM71.9651 539.061C72.9433 539.061 73.705 538.555 74.25 537.543C74.795 536.518 75.0675 534.953 75.0675 532.847C75.0675 531.059 74.8928 529.674 74.5435 528.69L69.8898 537.98C70.3929 538.7 71.0847 539.061 71.9651 539.061Z" fill="url(#paint21_linear_175_1867)" fill-opacity="0.6"/>
<path d="M73.2228 562.645H76.3043V563.747H68.3176V562.645H71.8812V550.966L68.4853 552.982L67.8984 552.046L72.0909 549.469H73.2228V562.645Z" fill="url(#paint22_linear_175_1867)" fill-opacity="0.6"/>
<path d="M71.9651 573.013C73.4604 573.013 74.5924 573.643 75.361 574.904C76.1436 576.151 76.5349 577.966 76.5349 580.349C76.5349 582.732 76.1436 584.554 75.361 585.815C74.5924 587.075 73.4604 587.706 71.9651 587.706C70.4838 587.706 69.3518 587.075 68.5692 585.815C67.7866 584.554 67.3953 582.732 67.3953 580.349C67.3953 577.98 67.7866 576.165 68.5692 574.904C69.3518 573.643 70.4838 573.013 71.9651 573.013ZM68.8836 580.349C68.8836 582.039 69.0374 583.362 69.3448 584.318L73.9985 575.112C73.5093 574.461 72.8315 574.135 71.9651 574.135C71.0008 574.135 70.2462 574.648 69.7012 575.673C69.1561 576.684 68.8836 578.243 68.8836 580.349ZM71.9651 586.563C72.9433 586.563 73.705 586.057 74.25 585.046C74.795 584.02 75.0675 582.455 75.0675 580.349C75.0675 578.562 74.8928 577.176 74.5435 576.192L69.8898 585.482C70.3929 586.202 71.0847 586.563 71.9651 586.563Z" fill="url(#paint23_linear_175_1867)" fill-opacity="0.6"/>
<path d="M73.2228 610.148H76.3043V611.249H68.3176V610.148H71.8812V598.468L68.4853 600.484L67.8984 599.549L72.0909 596.972H73.2228V610.148Z" fill="url(#paint24_linear_175_1867)" fill-opacity="0.6"/>
<path d="M73.2228 633.899H76.3043V635H68.3176V633.899H71.8812V622.219L68.4853 624.235L67.8984 623.3L72.0909 620.723H73.2228V633.899Z" fill="url(#paint25_linear_175_1867)" fill-opacity="0.6"/>
<path d="M13.5698 359.253C15.0651 359.253 16.1971 359.884 16.9657 361.144C17.7483 362.391 18.1396 364.206 18.1396 366.589C18.1396 368.972 17.7483 370.794 16.9657 372.055C16.1971 373.316 15.0651 373.946 13.5698 373.946C12.0885 373.946 10.9565 373.316 10.1739 372.055C9.3913 370.794 9 368.972 9 366.589C9 364.22 9.3913 362.405 10.1739 361.144C10.9565 359.884 12.0885 359.253 13.5698 359.253ZM10.4883 366.589C10.4883 368.28 10.6421 369.603 10.9495 370.559L15.6032 361.352C15.114 360.701 14.4363 360.375 13.5698 360.375C12.6055 360.375 11.8509 360.888 11.3059 361.913C10.7608 362.925 10.4883 364.483 10.4883 366.589ZM13.5698 372.803C14.5481 372.803 15.3097 372.297 15.8547 371.286C16.3997 370.261 16.6722 368.695 16.6722 366.589C16.6722 364.802 16.4976 363.417 16.1482 362.433L11.4945 371.722C11.9976 372.443 12.6894 372.803 13.5698 372.803Z" fill="url(#paint26_linear_175_1867)" fill-opacity="0.6"/>
<path d="M13.5698 383.004C15.0651 383.004 16.1971 383.635 16.9657 384.895C17.7483 386.142 18.1396 387.957 18.1396 390.34C18.1396 392.723 17.7483 394.545 16.9657 395.806C16.1971 397.067 15.0651 397.697 13.5698 397.697C12.0885 397.697 10.9565 397.067 10.1739 395.806C9.3913 394.545 9 392.723 9 390.34C9 387.971 9.3913 386.156 10.1739 384.895C10.9565 383.635 12.0885 383.004 13.5698 383.004ZM10.4883 390.34C10.4883 392.031 10.6421 393.354 10.9495 394.31L15.6032 385.103C15.114 384.452 14.4363 384.126 13.5698 384.126C12.6055 384.126 11.8509 384.639 11.3059 385.664C10.7608 386.676 10.4883 388.234 10.4883 390.34ZM13.5698 396.554C14.5481 396.554 15.3097 396.049 15.8547 395.037C16.3997 394.012 16.6722 392.446 16.6722 390.34C16.6722 388.553 16.4976 387.168 16.1482 386.184L11.4945 395.474C11.9976 396.194 12.6894 396.554 13.5698 396.554Z" fill="url(#paint27_linear_175_1867)" fill-opacity="0.6"/>
<path d="M14.8276 420.139H17.909V421.24H9.92235V420.139H13.486V408.459L10.09 410.475L9.5031 409.54L13.6956 406.963H14.8276V420.139Z" fill="url(#paint28_linear_175_1867)" fill-opacity="0.6"/>
<path d="M13.5698 430.506C15.0651 430.506 16.1971 431.137 16.9657 432.398C17.7483 433.644 18.1396 435.459 18.1396 437.842C18.1396 440.225 17.7483 442.047 16.9657 443.308C16.1971 444.569 15.0651 445.199 13.5698 445.199C12.0885 445.199 10.9565 444.569 10.1739 443.308C9.3913 442.047 9 440.225 9 437.842C9 435.473 9.3913 433.658 10.1739 432.398C10.9565 431.137 12.0885 430.506 13.5698 430.506ZM10.4883 437.842C10.4883 439.533 10.6421 440.856 10.9495 441.812L15.6032 432.605C15.114 431.954 14.4363 431.629 13.5698 431.629C12.6055 431.629 11.8509 432.141 11.3059 433.166C10.7608 434.178 10.4883 435.737 10.4883 437.842ZM13.5698 444.056C14.5481 444.056 15.3097 443.551 15.8547 442.539C16.3997 441.514 16.6722 439.948 16.6722 437.842C16.6722 436.055 16.4976 434.67 16.1482 433.686L11.4945 442.976C11.9976 443.696 12.6894 444.056 13.5698 444.056Z" fill="url(#paint29_linear_175_1867)" fill-opacity="0.6"/>
<path d="M14.8276 467.641H17.909V468.743H9.92235V467.641H13.486V455.962L10.09 457.977L9.5031 457.042L13.6956 454.465H14.8276V467.641Z" fill="url(#paint30_linear_175_1867)" fill-opacity="0.6"/>
<path d="M14.8276 491.392H17.909V492.494H9.92235V491.392H13.486V479.713L10.09 481.728L9.5031 480.793L13.6956 478.216H14.8276V491.392Z" fill="url(#paint31_linear_175_1867)" fill-opacity="0.6"/>
<path d="M53.7577 325.135H56.8392V326.236H48.8525V325.135H52.4162V313.455L49.0202 315.471L48.4333 314.536L52.6258 311.959H53.7577V325.135Z" fill="url(#paint32_linear_175_1867)" fill-opacity="0.6"/>
<path d="M52.5 335.502C53.9953 335.502 55.1273 336.133 55.8959 337.393C56.6785 338.64 57.0698 340.455 57.0698 342.838C57.0698 345.221 56.6785 347.043 55.8959 348.304C55.1273 349.565 53.9953 350.195 52.5 350.195C51.0187 350.195 49.8867 349.565 49.1041 348.304C48.3215 347.043 47.9302 345.221 47.9302 342.838C47.9302 340.469 48.3215 338.654 49.1041 337.393C49.8867 336.133 51.0187 335.502 52.5 335.502ZM49.4185 342.838C49.4185 344.529 49.5723 345.852 49.8797 346.808L54.5334 337.601C54.0442 336.95 53.3664 336.624 52.5 336.624C51.5357 336.624 50.7811 337.137 50.2361 338.162C49.691 339.174 49.4185 340.732 49.4185 342.838ZM52.5 349.052C53.4782 349.052 54.2399 348.546 54.7849 347.535C55.3299 346.51 55.6024 344.944 55.6024 342.838C55.6024 341.051 55.4277 339.665 55.0784 338.682L50.4247 347.971C50.9278 348.692 51.6196 349.052 52.5 349.052Z" fill="url(#paint33_linear_175_1867)" fill-opacity="0.6"/>
<path d="M53.7577 372.637H56.8392V373.738H48.8525V372.637H52.4162V360.957L49.0202 362.973L48.4333 362.038L52.6258 359.461H53.7577V372.637Z" fill="url(#paint34_linear_175_1867)" fill-opacity="0.6"/>
<path d="M53.7577 396.388H56.8392V397.489H48.8525V396.388H52.4162V384.708L49.0202 386.724L48.4333 385.789L52.6258 383.212H53.7577V396.388Z" fill="url(#paint35_linear_175_1867)" fill-opacity="0.6"/>
<path d="M52.5 406.755C53.9953 406.755 55.1273 407.386 55.8959 408.646C56.6785 409.893 57.0698 411.708 57.0698 414.091C57.0698 416.474 56.6785 418.296 55.8959 419.557C55.1273 420.818 53.9953 421.448 52.5 421.448C51.0187 421.448 49.8867 420.818 49.1041 419.557C48.3215 418.296 47.9302 416.474 47.9302 414.091C47.9302 411.722 48.3215 409.907 49.1041 408.646C49.8867 407.386 51.0187 406.755 52.5 406.755ZM49.4185 414.091C49.4185 415.782 49.5723 417.105 49.8797 418.061L54.5334 408.854C54.0442 408.203 53.3664 407.878 52.5 407.878C51.5357 407.878 50.7811 408.39 50.2361 409.415C49.691 410.427 49.4185 411.985 49.4185 414.091ZM52.5 420.305C53.4782 420.305 54.2399 419.8 54.7849 418.788C55.3299 417.763 55.6024 416.197 55.6024 414.091C55.6024 412.304 55.4277 410.919 55.0784 409.935L50.4247 419.225C50.9278 419.945 51.6196 420.305 52.5 420.305Z" fill="url(#paint36_linear_175_1867)" fill-opacity="0.6"/>
<path d="M53.7577 443.89H56.8392V444.992H48.8525V443.89H52.4162V432.21L49.0202 434.226L48.4333 433.291L52.6258 430.714H53.7577V443.89Z" fill="url(#paint37_linear_175_1867)" fill-opacity="0.6"/>
<path d="M53.7577 467.641H56.8392V468.743H48.8525V467.641H52.4162V455.962L49.0202 457.977L48.4333 457.042L52.6258 454.465H53.7577V467.641Z" fill="url(#paint38_linear_175_1867)" fill-opacity="0.6"/>
<path d="M52.5 478.008C53.9953 478.008 55.1273 478.639 55.8959 479.9C56.6785 481.147 57.0698 482.962 57.0698 485.345C57.0698 487.728 56.6785 489.549 55.8959 490.81C55.1273 492.071 53.9953 492.701 52.5 492.701C51.0187 492.701 49.8867 492.071 49.1041 490.81C48.3215 489.549 47.9302 487.728 47.9302 485.345C47.9302 482.975 48.3215 481.16 49.1041 479.9C49.8867 478.639 51.0187 478.008 52.5 478.008ZM49.4185 485.345C49.4185 487.035 49.5723 488.358 49.8797 489.314L54.5334 480.107C54.0442 479.456 53.3664 479.131 52.5 479.131C51.5357 479.131 50.7811 479.643 50.2361 480.669C49.691 481.68 49.4185 483.239 49.4185 485.345ZM52.5 491.558C53.4782 491.558 54.2399 491.053 54.7849 490.041C55.3299 489.016 55.6024 487.451 55.6024 485.345C55.6024 483.557 55.4277 482.172 55.0784 481.188L50.4247 490.478C50.9278 491.198 51.6196 491.558 52.5 491.558Z" fill="url(#paint39_linear_175_1867)" fill-opacity="0.6"/>
<path d="M53.7577 515.143H56.8392V516.245H48.8525V515.143H52.4162V503.464L49.0202 505.48L48.4333 504.544L52.6258 501.967H53.7577V515.143Z" fill="url(#paint40_linear_175_1867)" fill-opacity="0.6"/>
<path d="M52.5 525.511C53.9953 525.511 55.1273 526.141 55.8959 527.402C56.6785 528.649 57.0698 530.464 57.0698 532.847C57.0698 535.23 56.6785 537.052 55.8959 538.312C55.1273 539.573 53.9953 540.204 52.5 540.204C51.0187 540.204 49.8867 539.573 49.1041 538.312C48.3215 537.052 47.9302 535.23 47.9302 532.847C47.9302 530.478 48.3215 528.663 49.1041 527.402C49.8867 526.141 51.0187 525.511 52.5 525.511ZM49.4185 532.847C49.4185 534.537 49.5723 535.86 49.8797 536.816L54.5334 527.61C54.0442 526.958 53.3664 526.633 52.5 526.633C51.5357 526.633 50.7811 527.145 50.2361 528.171C49.691 529.182 49.4185 530.741 49.4185 532.847ZM52.5 539.061C53.4782 539.061 54.2399 538.555 54.7849 537.543C55.3299 536.518 55.6024 534.953 55.6024 532.847C55.6024 531.059 55.4277 529.674 55.0784 528.69L50.4247 537.98C50.9278 538.7 51.6196 539.061 52.5 539.061Z" fill="url(#paint41_linear_175_1867)" fill-opacity="0.6"/>
<path d="M91.4302 311.751C92.9255 311.751 94.0575 312.381 94.8261 313.642C95.6087 314.889 96 316.704 96 319.087C96 321.47 95.6087 323.292 94.8261 324.553C94.0575 325.814 92.9255 326.444 91.4302 326.444C89.9489 326.444 88.8169 325.814 88.0343 324.553C87.2517 323.292 86.8604 321.47 86.8604 319.087C86.8604 316.718 87.2517 314.903 88.0343 313.642C88.8169 312.381 89.9489 311.751 91.4302 311.751ZM88.3487 319.087C88.3487 320.777 88.5024 322.101 88.8099 323.057L93.4636 313.85C92.9744 313.199 92.2966 312.873 91.4302 312.873C90.4659 312.873 89.7113 313.386 89.1663 314.411C88.6212 315.423 88.3487 316.981 88.3487 319.087ZM91.4302 325.301C92.4084 325.301 93.1701 324.795 93.7151 323.784C94.2601 322.759 94.5326 321.193 94.5326 319.087C94.5326 317.3 94.3579 315.914 94.0086 314.931L89.3549 324.22C89.858 324.941 90.5498 325.301 91.4302 325.301Z" fill="url(#paint42_linear_175_1867)" fill-opacity="0.6"/>
<path d="M92.6879 348.886H95.7694V349.987H87.7827V348.886H91.3463V337.206L87.9504 339.222L87.3635 338.287L91.556 335.71H92.6879V348.886Z" fill="url(#paint43_linear_175_1867)" fill-opacity="0.6"/>
<path d="M92.6879 372.637H95.7694V373.738H87.7827V372.637H91.3463V360.957L87.9504 362.973L87.3635 362.038L91.556 359.461H92.6879V372.637Z" fill="url(#paint44_linear_175_1867)" fill-opacity="0.6"/>
<path d="M91.4302 383.004C92.9255 383.004 94.0575 383.635 94.8261 384.895C95.6087 386.142 96 387.957 96 390.34C96 392.723 95.6087 394.545 94.8261 395.806C94.0575 397.067 92.9255 397.697 91.4302 397.697C89.9489 397.697 88.8169 397.067 88.0343 395.806C87.2517 394.545 86.8604 392.723 86.8604 390.34C86.8604 387.971 87.2517 386.156 88.0343 384.895C88.8169 383.635 89.9489 383.004 91.4302 383.004ZM88.3487 390.34C88.3487 392.031 88.5024 393.354 88.8099 394.31L93.4636 385.103C92.9744 384.452 92.2966 384.126 91.4302 384.126C90.4659 384.126 89.7113 384.639 89.1663 385.664C88.6212 386.676 88.3487 388.234 88.3487 390.34ZM91.4302 396.554C92.4084 396.554 93.1701 396.049 93.7151 395.037C94.2601 394.012 94.5326 392.446 94.5326 390.34C94.5326 388.553 94.3579 387.168 94.0086 386.184L89.3549 395.474C89.858 396.194 90.5498 396.554 91.4302 396.554Z" fill="url(#paint45_linear_175_1867)" fill-opacity="0.6"/>
<path d="M91.4302 406.755C92.9255 406.755 94.0575 407.386 94.8261 408.646C95.6087 409.893 96 411.708 96 414.091C96 416.474 95.6087 418.296 94.8261 419.557C94.0575 420.818 92.9255 421.448 91.4302 421.448C89.9489 421.448 88.8169 420.818 88.0343 419.557C87.2517 418.296 86.8604 416.474 86.8604 414.091C86.8604 411.722 87.2517 409.907 88.0343 408.646C88.8169 407.386 89.9489 406.755 91.4302 406.755ZM88.3487 414.091C88.3487 415.782 88.5024 417.105 88.8099 418.061L93.4636 408.854C92.9744 408.203 92.2966 407.878 91.4302 407.878C90.4659 407.878 89.7113 408.39 89.1663 409.415C88.6212 410.427 88.3487 411.985 88.3487 414.091ZM91.4302 420.305C92.4084 420.305 93.1701 419.8 93.7151 418.788C94.2601 417.763 94.5326 416.197 94.5326 414.091C94.5326 412.304 94.3579 410.919 94.0086 409.935L89.3549 419.225C89.858 419.945 90.5498 420.305 91.4302 420.305Z" fill="url(#paint46_linear_175_1867)" fill-opacity="0.6"/>
<g opacity="0.6">
<path d="M919.93 -12C921.356 -12 922.436 -11.395 923.17 -10.1851C923.916 -8.9885 924.29 -7.24675 924.29 -4.95987C924.29 -2.67299 923.916 -0.924597 923.17 0.285321C922.436 1.49524 921.356 2.1002 919.93 2.1002C918.517 2.1002 917.437 1.49524 916.69 0.285321C915.943 -0.924597 915.57 -2.67299 915.57 -4.95987C915.57 -7.23346 915.943 -8.97521 916.69 -10.1851C917.437 -11.395 918.517 -12 919.93 -12ZM916.99 -4.95987C916.99 -3.33778 917.137 -2.06804 917.43 -1.15063L921.87 -9.98569C921.403 -10.6106 920.756 -10.923 919.93 -10.923C919.01 -10.923 918.29 -10.4311 917.77 -9.44721C917.25 -8.47661 916.99 -6.98083 916.99 -4.95987ZM919.93 1.00329C920.863 1.00329 921.59 0.517998 922.11 -0.452596C922.63 -1.43649 922.89 -2.93891 922.89 -4.95987C922.89 -6.67503 922.723 -8.00461 922.39 -8.94861L917.95 -0.0337779C918.43 0.657604 919.09 1.00329 919.93 1.00329Z" fill="url(#paint47_linear_175_1867)"/>
<path d="M921.13 23.6365H924.07V24.6936H916.45V23.6365H919.85V12.4282L916.61 14.3627L916.05 13.4653L920.05 10.9922H921.13V23.6365Z" fill="url(#paint48_linear_175_1867)"/>
<path d="M919.93 33.5856C921.356 33.5856 922.436 34.1906 923.17 35.4005C923.916 36.5971 924.29 38.3389 924.29 40.6257C924.29 42.9126 923.916 44.661 923.17 45.8709C922.436 47.0808 921.356 47.6858 919.93 47.6858C918.517 47.6858 917.437 47.0808 916.69 45.8709C915.943 44.661 915.57 42.9126 915.57 40.6257C915.57 38.3522 915.943 36.6104 916.69 35.4005C917.437 34.1906 918.517 33.5856 919.93 33.5856ZM916.99 40.6257C916.99 42.2478 917.137 43.5176 917.43 44.435L921.87 35.5999C921.403 34.975 920.756 34.6626 919.93 34.6626C919.01 34.6626 918.29 35.1545 917.77 36.1384C917.25 37.109 916.99 38.6048 916.99 40.6257ZM919.93 46.5889C920.863 46.5889 921.59 46.1036 922.11 45.133C922.63 44.1491 922.89 42.6467 922.89 40.6257C922.89 38.9106 922.723 37.581 922.39 36.637L917.95 45.5518C918.43 46.2432 919.09 46.5889 919.93 46.5889Z" fill="url(#paint49_linear_175_1867)"/>
<path d="M921.13 69.2221H924.07V70.2792H916.45V69.2221H919.85V58.0138L916.61 59.9483L916.05 59.0509L920.05 56.5778H921.13V69.2221Z" fill="url(#paint50_linear_175_1867)"/>
<path d="M921.13 92.015H924.07V93.072H916.45V92.015H919.85V80.8066L916.61 82.7411L916.05 81.8437L920.05 79.3706H921.13V92.015Z" fill="url(#paint51_linear_175_1867)"/>
<path d="M919.93 101.964C921.356 101.964 922.436 102.569 923.17 103.779C923.916 104.976 924.29 106.717 924.29 109.004C924.29 111.291 923.916 113.039 923.17 114.249C922.436 115.459 921.356 116.064 919.93 116.064C918.517 116.064 917.437 115.459 916.69 114.249C915.943 113.039 915.57 111.291 915.57 109.004C915.57 106.731 915.943 104.989 916.69 103.779C917.437 102.569 918.517 101.964 919.93 101.964ZM916.99 109.004C916.99 110.626 917.137 111.896 917.43 112.813L921.87 103.978C921.403 103.353 920.756 103.041 919.93 103.041C919.01 103.041 918.29 103.533 917.77 104.517C917.25 105.487 916.99 106.983 916.99 109.004ZM919.93 114.967C920.863 114.967 921.59 114.482 922.11 113.511C922.63 112.528 922.89 111.025 922.89 109.004C922.89 107.289 922.723 105.959 922.39 105.015L917.95 113.93C918.43 114.622 919.09 114.967 919.93 114.967Z" fill="url(#paint52_linear_175_1867)"/>
<path d="M921.13 137.601H924.07V138.658H916.45V137.601H919.85V126.392L916.61 128.327L916.05 127.429L920.05 124.956H921.13V137.601Z" fill="url(#paint53_linear_175_1867)"/>
<path d="M919.93 147.55C921.356 147.55 922.436 148.155 923.17 149.365C923.916 150.561 924.29 152.303 924.29 154.59C924.29 156.877 923.916 158.625 923.17 159.835C922.436 161.045 921.356 161.65 919.93 161.65C918.517 161.65 917.437 161.045 916.69 159.835C915.943 158.625 915.57 156.877 915.57 154.59C915.57 152.316 915.943 150.574 916.69 149.365C917.437 148.155 918.517 147.55 919.93 147.55ZM916.99 154.59C916.99 156.212 917.137 157.482 917.43 158.399L921.87 149.564C921.403 148.939 920.756 148.627 919.93 148.627C919.01 148.627 918.29 149.119 917.77 150.102C917.25 151.073 916.99 152.569 916.99 154.59ZM919.93 160.553C920.863 160.553 921.59 160.068 922.11 159.097C922.63 158.113 922.89 156.611 922.89 154.59C922.89 152.875 922.723 151.545 922.39 150.601L917.95 159.516C918.43 160.207 919.09 160.553 919.93 160.553Z" fill="url(#paint54_linear_175_1867)"/>
<path d="M919.93 170.342C921.356 170.342 922.436 170.947 923.17 172.157C923.916 173.354 924.29 175.096 924.29 177.383C924.29 179.669 923.916 181.418 923.17 182.628C922.436 183.838 921.356 184.443 919.93 184.443C918.517 184.443 917.437 183.838 916.69 182.628C915.943 181.418 915.57 179.669 915.57 177.383C915.57 175.109 915.943 173.367 916.69 172.157C917.437 170.947 918.517 170.342 919.93 170.342ZM916.99 177.383C916.99 179.005 917.137 180.274 917.43 181.192L921.87 172.357C921.403 171.732 920.756 171.419 919.93 171.419C919.01 171.419 918.29 171.911 917.77 172.895C917.25 173.866 916.99 175.362 916.99 177.383ZM919.93 183.346C920.863 183.346 921.59 182.86 922.11 181.89C922.63 180.906 922.89 179.404 922.89 177.383C922.89 175.667 922.723 174.338 922.39 173.394L917.95 182.309C918.43 183 919.09 183.346 919.93 183.346Z" fill="url(#paint55_linear_175_1867)"/>
<path d="M921.13 205.979H924.07V207.036H916.45V205.979H919.85V194.771L916.61 196.705L916.05 195.808L920.05 193.335H921.13V205.979Z" fill="url(#paint56_linear_175_1867)"/>
<path d="M919.93 215.928C921.356 215.928 922.436 216.533 923.17 217.743C923.916 218.94 924.29 220.681 924.29 222.968C924.29 225.255 923.916 227.003 923.17 228.213C922.436 229.423 921.356 230.028 919.93 230.028C918.517 230.028 917.437 229.423 916.69 228.213C915.943 227.003 915.57 225.255 915.57 222.968C915.57 220.695 915.943 218.953 916.69 217.743C917.437 216.533 918.517 215.928 919.93 215.928ZM916.99 222.968C916.99 224.59 917.137 225.86 917.43 226.777L921.87 217.942C921.403 217.317 920.756 217.005 919.93 217.005C919.01 217.005 918.29 217.497 917.77 218.481C917.25 219.451 916.99 220.947 916.99 222.968ZM919.93 228.931C920.863 228.931 921.59 228.446 922.11 227.475C922.63 226.492 922.89 224.989 922.89 222.968C922.89 221.253 922.723 219.923 922.39 218.979L917.95 227.894C918.43 228.586 919.09 228.931 919.93 228.931Z" fill="url(#paint57_linear_175_1867)"/>
<path d="M921.13 251.565H924.07V252.622H916.45V251.565H919.85V240.356L916.61 242.291L916.05 241.393L920.05 238.92H921.13V251.565Z" fill="url(#paint58_linear_175_1867)"/>
<path d="M921.13 274.357H924.07V275.414H916.45V274.357H919.85V263.149L916.61 265.084L916.05 264.186L920.05 261.713H921.13V274.357Z" fill="url(#paint59_linear_175_1867)"/>
<path d="M957.07 33.5856C958.497 33.5856 959.577 34.1906 960.31 35.4005C961.057 36.5971 961.43 38.3389 961.43 40.6257C961.43 42.9126 961.057 44.661 960.31 45.8709C959.577 47.0808 958.497 47.6858 957.07 47.6858C955.657 47.6858 954.577 47.0808 953.83 45.8709C953.084 44.661 952.71 42.9126 952.71 40.6257C952.71 38.3522 953.084 36.6104 953.83 35.4005C954.577 34.1906 955.657 33.5856 957.07 33.5856ZM954.13 40.6257C954.13 42.2478 954.277 43.5176 954.57 44.435L959.01 35.5999C958.543 34.975 957.897 34.6626 957.07 34.6626C956.15 34.6626 955.43 35.1545 954.91 36.1384C954.39 37.109 954.13 38.6048 954.13 40.6257ZM957.07 46.5889C958.003 46.5889 958.73 46.1036 959.25 45.133C959.77 44.1491 960.03 42.6467 960.03 40.6257C960.03 38.9106 959.863 37.581 959.53 36.637L955.09 45.5518C955.57 46.2432 956.23 46.5889 957.07 46.5889Z" fill="url(#paint60_linear_175_1867)"/>
<path d="M958.27 69.2221H961.21V70.2792H953.59V69.2221H956.99V58.0138L953.75 59.9483L953.19 59.0509L957.19 56.5778H958.27V69.2221Z" fill="url(#paint61_linear_175_1867)"/>
<path d="M957.07 79.1712C958.497 79.1712 959.577 79.7762 960.31 80.9861C961.057 82.1827 961.43 83.9245 961.43 86.2113C961.43 88.4982 961.057 90.2466 960.31 91.4565C959.577 92.6664 958.497 93.2714 957.07 93.2714C955.657 93.2714 954.577 92.6664 953.83 91.4565C953.084 90.2466 952.71 88.4982 952.71 86.2113C952.71 83.9378 953.084 82.196 953.83 80.9861C954.577 79.7762 955.657 79.1712 957.07 79.1712ZM954.13 86.2113C954.13 87.8334 954.277 89.1032 954.57 90.0206L959.01 81.1855C958.543 80.5606 957.897 80.2482 957.07 80.2482C956.15 80.2482 955.43 80.7401 954.91 81.724C954.39 82.6946 954.13 84.1904 954.13 86.2113ZM957.07 92.1745C958.003 92.1745 958.73 91.6892 959.25 90.7186C959.77 89.7347 960.03 88.2323 960.03 86.2113C960.03 84.4962 959.863 83.1666 959.53 82.2226L955.09 91.1374C955.57 91.8288 956.23 92.1745 957.07 92.1745Z" fill="url(#paint62_linear_175_1867)"/>
<path d="M957.07 101.964C958.497 101.964 959.577 102.569 960.31 103.779C961.057 104.976 961.43 106.717 961.43 109.004C961.43 111.291 961.057 113.039 960.31 114.249C959.577 115.459 958.497 116.064 957.07 116.064C955.657 116.064 954.577 115.459 953.83 114.249C953.084 113.039 952.71 111.291 952.71 109.004C952.71 106.731 953.084 104.989 953.83 103.779C954.577 102.569 955.657 101.964 957.07 101.964ZM954.13 109.004C954.13 110.626 954.277 111.896 954.57 112.813L959.01 103.978C958.543 103.353 957.897 103.041 957.07 103.041C956.15 103.041 955.43 103.533 954.91 104.517C954.39 105.487 954.13 106.983 954.13 109.004ZM957.07 114.967C958.003 114.967 958.73 114.482 959.25 113.511C959.77 112.528 960.03 111.025 960.03 109.004C960.03 107.289 959.863 105.959 959.53 105.015L955.09 113.93C955.57 114.622 956.23 114.967 957.07 114.967Z" fill="url(#paint63_linear_175_1867)"/>
<path d="M958.27 137.601H961.21V138.658H953.59V137.601H956.99V126.392L953.75 128.327L953.19 127.429L957.19 124.956H958.27V137.601Z" fill="url(#paint64_linear_175_1867)"/>
<path d="M957.07 147.55C958.497 147.55 959.577 148.155 960.31 149.365C961.057 150.561 961.43 152.303 961.43 154.59C961.43 156.877 961.057 158.625 960.31 159.835C959.577 161.045 958.497 161.65 957.07 161.65C955.657 161.65 954.577 161.045 953.83 159.835C953.084 158.625 952.71 156.877 952.71 154.59C952.71 152.316 953.084 150.574 953.83 149.365C954.577 148.155 955.657 147.55 957.07 147.55ZM954.13 154.59C954.13 156.212 954.277 157.482 954.57 158.399L959.01 149.564C958.543 148.939 957.897 148.627 957.07 148.627C956.15 148.627 955.43 149.119 954.91 150.102C954.39 151.073 954.13 152.569 954.13 154.59ZM957.07 160.553C958.003 160.553 958.73 160.068 959.25 159.097C959.77 158.113 960.03 156.611 960.03 154.59C960.03 152.875 959.863 151.545 959.53 150.601L955.09 159.516C955.57 160.207 956.23 160.553 957.07 160.553Z" fill="url(#paint65_linear_175_1867)"/>
<path d="M958.27 183.186H961.21V184.243H953.59V183.186H956.99V171.978L953.75 173.912L953.19 173.015L957.19 170.542H958.27V183.186Z" fill="url(#paint66_linear_175_1867)"/>
<path d="M957.07 193.135C958.497 193.135 959.577 193.74 960.31 194.95C961.057 196.147 961.43 197.888 961.43 200.175C961.43 202.462 961.057 204.211 960.31 205.421C959.577 206.63 958.497 207.235 957.07 207.235C955.657 207.235 954.577 206.63 953.83 205.421C953.084 204.211 952.71 202.462 952.71 200.175C952.71 197.902 953.084 196.16 953.83 194.95C954.577 193.74 955.657 193.135 957.07 193.135ZM954.13 200.175C954.13 201.797 954.277 203.067 954.57 203.985L959.01 195.15C958.543 194.525 957.897 194.212 957.07 194.212C956.15 194.212 955.43 194.704 954.91 195.688C954.39 196.659 954.13 198.154 954.13 200.175ZM957.07 206.139C958.003 206.139 958.73 205.653 959.25 204.683C959.77 203.699 960.03 202.196 960.03 200.175C960.03 198.46 959.863 197.131 959.53 196.187L955.09 205.101C955.57 205.793 956.23 206.139 957.07 206.139Z" fill="url(#paint67_linear_175_1867)"/>
<path d="M957.07 215.928C958.497 215.928 959.577 216.533 960.31 217.743C961.057 218.94 961.43 220.681 961.43 222.968C961.43 225.255 961.057 227.003 960.31 228.213C959.577 229.423 958.497 230.028 957.07 230.028C955.657 230.028 954.577 229.423 953.83 228.213C953.084 227.003 952.71 225.255 952.71 222.968C952.71 220.695 953.084 218.953 953.83 217.743C954.577 216.533 955.657 215.928 957.07 215.928ZM954.13 222.968C954.13 224.59 954.277 225.86 954.57 226.777L959.01 217.942C958.543 217.317 957.897 217.005 957.07 217.005C956.15 217.005 955.43 217.497 954.91 218.481C954.39 219.451 954.13 220.947 954.13 222.968ZM957.07 228.931C958.003 228.931 958.73 228.446 959.25 227.475C959.77 226.492 960.03 224.989 960.03 222.968C960.03 221.253 959.863 219.923 959.53 218.979L955.09 227.894C955.57 228.586 956.23 228.931 957.07 228.931Z" fill="url(#paint68_linear_175_1867)"/>
<path d="M958.27 251.565H961.21V252.622H953.59V251.565H956.99V240.356L953.75 242.291L953.19 241.393L957.19 238.92H958.27V251.565Z" fill="url(#paint69_linear_175_1867)"/>
<path d="M957.07 261.514C958.497 261.514 959.577 262.119 960.31 263.329C961.057 264.525 961.43 266.267 961.43 268.554C961.43 270.841 961.057 272.589 960.31 273.799C959.577 275.009 958.497 275.614 957.07 275.614C955.657 275.614 954.577 275.009 953.83 273.799C953.084 272.589 952.71 270.841 952.71 268.554C952.71 266.28 953.084 264.538 953.83 263.329C954.577 262.119 955.657 261.514 957.07 261.514ZM954.13 268.554C954.13 270.176 954.277 271.446 954.57 272.363L959.01 263.528C958.543 262.903 957.897 262.591 957.07 262.591C956.15 262.591 955.43 263.083 954.91 264.066C954.39 265.037 954.13 266.533 954.13 268.554ZM957.07 274.517C958.003 274.517 958.73 274.032 959.25 273.061C959.77 272.077 960.03 270.575 960.03 268.554C960.03 266.839 959.863 265.509 959.53 264.565L955.09 273.48C955.57 274.171 956.23 274.517 957.07 274.517Z" fill="url(#paint70_linear_175_1867)"/>
<path d="M958.27 297.15H961.21V298.207H953.59V297.15H956.99V285.942L953.75 287.876L953.19 286.979L957.19 284.506H958.27V297.15Z" fill="url(#paint71_linear_175_1867)"/>
<path d="M958.27 319.943H961.21V321H953.59V319.943H956.99V308.735L953.75 310.669L953.19 309.772L957.19 307.299H958.27V319.943Z" fill="url(#paint72_linear_175_1867)"/>
<path d="M901.36 56.3784C902.786 56.3784 903.866 56.9834 904.599 58.1933C905.346 59.3899 905.719 61.1317 905.719 63.4185C905.719 65.7054 905.346 67.4538 904.599 68.6637C903.866 69.8736 902.786 70.4786 901.36 70.4786C899.946 70.4786 898.867 69.8736 898.12 68.6637C897.373 67.4538 897 65.7054 897 63.4185C897 61.145 897.373 59.4032 898.12 58.1933C898.867 56.9834 899.946 56.3784 901.36 56.3784ZM898.42 63.4185C898.42 65.0406 898.567 66.3104 898.86 67.2278L903.3 58.3927C902.833 57.7678 902.186 57.4554 901.36 57.4554C900.44 57.4554 899.72 57.9473 899.2 58.9312C898.68 59.9018 898.42 61.3976 898.42 63.4185ZM901.36 69.3817C902.293 69.3817 903.02 68.8964 903.54 67.9258C904.06 66.9419 904.319 65.4395 904.319 63.4185C904.319 61.7034 904.153 60.3738 903.82 59.4298L899.38 68.3446C899.86 69.036 900.52 69.3817 901.36 69.3817Z" fill="url(#paint73_linear_175_1867)"/>
<path d="M901.36 79.1712C902.786 79.1712 903.866 79.7762 904.599 80.9861C905.346 82.1827 905.719 83.9245 905.719 86.2113C905.719 88.4982 905.346 90.2466 904.599 91.4565C903.866 92.6664 902.786 93.2714 901.36 93.2714C899.946 93.2714 898.867 92.6664 898.12 91.4565C897.373 90.2466 897 88.4982 897 86.2113C897 83.9378 897.373 82.196 898.12 80.9861C898.867 79.7762 899.946 79.1712 901.36 79.1712ZM898.42 86.2113C898.42 87.8334 898.567 89.1032 898.86 90.0206L903.3 81.1855C902.833 80.5606 902.186 80.2482 901.36 80.2482C900.44 80.2482 899.72 80.7401 899.2 81.724C898.68 82.6946 898.42 84.1904 898.42 86.2113ZM901.36 92.1745C902.293 92.1745 903.02 91.6892 903.54 90.7186C904.06 89.7347 904.319 88.2323 904.319 86.2113C904.319 84.4962 904.153 83.1666 903.82 82.2226L899.38 91.1374C899.86 91.8288 900.52 92.1745 901.36 92.1745Z" fill="url(#paint74_linear_175_1867)"/>
<path d="M902.56 114.808H905.499V115.865H897.88V114.808H901.28V103.599L898.04 105.534L897.48 104.636L901.48 102.163H902.56V114.808Z" fill="url(#paint75_linear_175_1867)"/>
<path d="M901.36 124.757C902.786 124.757 903.866 125.362 904.599 126.572C905.346 127.768 905.719 129.51 905.719 131.797C905.719 134.084 905.346 135.832 904.599 137.042C903.866 138.252 902.786 138.857 901.36 138.857C899.946 138.857 898.867 138.252 898.12 137.042C897.373 135.832 897 134.084 897 131.797C897 129.523 897.373 127.782 898.12 126.572C898.867 125.362 899.946 124.757 901.36 124.757ZM898.42 131.797C898.42 133.419 898.567 134.689 898.86 135.606L903.3 126.771C902.833 126.146 902.186 125.834 901.36 125.834C900.44 125.834 899.72 126.326 899.2 127.31C898.68 128.28 898.42 129.776 898.42 131.797ZM901.36 137.76C902.293 137.76 903.02 137.275 903.54 136.304C904.06 135.32 904.319 133.818 904.319 131.797C904.319 130.082 904.153 128.752 903.82 127.808L899.38 136.723C899.86 137.414 900.52 137.76 901.36 137.76Z" fill="url(#paint76_linear_175_1867)"/>
<path d="M902.56 160.393H905.499V161.45H897.88V160.393H901.28V149.185L898.04 151.12L897.48 150.222L901.48 147.749H902.56V160.393Z" fill="url(#paint77_linear_175_1867)"/>
<path d="M902.56 183.186H905.499V184.243H897.88V183.186H901.28V171.978L898.04 173.912L897.48 173.015L901.48 170.542H902.56V183.186Z" fill="url(#paint78_linear_175_1867)"/>
<path d="M939.7 23.6365H942.64V24.6936H935.02V23.6365H938.42V12.4282L935.18 14.3627L934.62 13.4653L938.62 10.9922H939.7V23.6365Z" fill="url(#paint79_linear_175_1867)"/>
<path d="M938.5 33.5856C939.927 33.5856 941.006 34.1906 941.74 35.4005C942.486 36.5971 942.86 38.3389 942.86 40.6257C942.86 42.9126 942.486 44.661 941.74 45.8709C941.006 47.0808 939.927 47.6858 938.5 47.6858C937.087 47.6858 936.007 47.0808 935.26 45.8709C934.514 44.661 934.14 42.9126 934.14 40.6257C934.14 38.3522 934.514 36.6104 935.26 35.4005C936.007 34.1906 937.087 33.5856 938.5 33.5856ZM935.56 40.6257C935.56 42.2478 935.707 43.5176 936 44.435L940.44 35.5999C939.973 34.975 939.327 34.6626 938.5 34.6626C937.58 34.6626 936.86 35.1545 936.34 36.1384C935.82 37.109 935.56 38.6048 935.56 40.6257ZM938.5 46.5889C939.433 46.5889 940.16 46.1036 940.68 45.133C941.2 44.1491 941.46 42.6467 941.46 40.6257C941.46 38.9106 941.293 37.581 940.96 36.637L936.52 45.5518C937 46.2432 937.66 46.5889 938.5 46.5889Z" fill="url(#paint80_linear_175_1867)"/>
<path d="M939.7 69.2221H942.64V70.2792H935.02V69.2221H938.42V58.0138L935.18 59.9483L934.62 59.0509L938.62 56.5778H939.7V69.2221Z" fill="url(#paint81_linear_175_1867)"/>
<path d="M939.7 92.015H942.64V93.072H935.02V92.015H938.42V80.8066L935.18 82.7411L934.62 81.8437L938.62 79.3706H939.7V92.015Z" fill="url(#paint82_linear_175_1867)"/>
<path d="M938.5 101.964C939.927 101.964 941.006 102.569 941.74 103.779C942.486 104.976 942.86 106.717 942.86 109.004C942.86 111.291 942.486 113.039 941.74 114.249C941.006 115.459 939.927 116.064 938.5 116.064C937.087 116.064 936.007 115.459 935.26 114.249C934.514 113.039 934.14 111.291 934.14 109.004C934.14 106.731 934.514 104.989 935.26 103.779C936.007 102.569 937.087 101.964 938.5 101.964ZM935.56 109.004C935.56 110.626 935.707 111.896 936 112.813L940.44 103.978C939.973 103.353 939.327 103.041 938.5 103.041C937.58 103.041 936.86 103.533 936.34 104.517C935.82 105.487 935.56 106.983 935.56 109.004ZM938.5 114.967C939.433 114.967 940.16 114.482 940.68 113.511C941.2 112.528 941.46 111.025 941.46 109.004C941.46 107.289 941.293 105.959 940.96 105.015L936.52 113.93C937 114.622 937.66 114.967 938.5 114.967Z" fill="url(#paint83_linear_175_1867)"/>
<path d="M939.7 137.601H942.64V138.658H935.02V137.601H938.42V126.392L935.18 128.327L934.62 127.429L938.62 124.956H939.7V137.601Z" fill="url(#paint84_linear_175_1867)"/>
<path d="M939.7 160.393H942.64V161.45H935.02V160.393H938.42V149.185L935.18 151.12L934.62 150.222L938.62 147.749H939.7V160.393Z" fill="url(#paint85_linear_175_1867)"/>
<path d="M938.5 170.342C939.927 170.342 941.006 170.947 941.74 172.157C942.486 173.354 942.86 175.096 942.86 177.383C942.86 179.669 942.486 181.418 941.74 182.628C941.006 183.838 939.927 184.443 938.5 184.443C937.087 184.443 936.007 183.838 935.26 182.628C934.514 181.418 934.14 179.669 934.14 177.383C934.14 175.109 934.514 173.367 935.26 172.157C936.007 170.947 937.087 170.342 938.5 170.342ZM935.56 177.383C935.56 179.005 935.707 180.274 936 181.192L940.44 172.357C939.973 171.732 939.327 171.419 938.5 171.419C937.58 171.419 936.86 171.911 936.34 172.895C935.82 173.866 935.56 175.362 935.56 177.383ZM938.5 183.346C939.433 183.346 940.16 182.86 940.68 181.89C941.2 180.906 941.46 179.404 941.46 177.383C941.46 175.667 941.293 174.338 940.96 173.394L936.52 182.309C937 183 937.66 183.346 938.5 183.346Z" fill="url(#paint86_linear_175_1867)"/>
<path d="M939.7 205.979H942.64V207.036H935.02V205.979H938.42V194.771L935.18 196.705L934.62 195.808L938.62 193.335H939.7V205.979Z" fill="url(#paint87_linear_175_1867)"/>
<path d="M938.5 215.928C939.927 215.928 941.006 216.533 941.74 217.743C942.486 218.94 942.86 220.681 942.86 222.968C942.86 225.255 942.486 227.003 941.74 228.213C941.006 229.423 939.927 230.028 938.5 230.028C937.087 230.028 936.007 229.423 935.26 228.213C934.514 227.003 934.14 225.255 934.14 222.968C934.14 220.695 934.514 218.953 935.26 217.743C936.007 216.533 937.087 215.928 938.5 215.928ZM935.56 222.968C935.56 224.59 935.707 225.86 936 226.777L940.44 217.942C939.973 217.317 939.327 217.005 938.5 217.005C937.58 217.005 936.86 217.497 936.34 218.481C935.82 219.451 935.56 220.947 935.56 222.968ZM938.5 228.931C939.433 228.931 940.16 228.446 940.68 227.475C941.2 226.492 941.46 224.989 941.46 222.968C941.46 221.253 941.293 219.923 940.96 218.979L936.52 227.894C937 228.586 937.66 228.931 938.5 228.931Z" fill="url(#paint88_linear_175_1867)"/>
<path d="M975.64 10.7928C977.067 10.7928 978.147 11.3978 978.88 12.6077C979.627 13.8043 980 15.5461 980 17.8329C980 20.1198 979.627 21.8682 978.88 23.0781C978.147 24.288 977.067 24.893 975.64 24.893C974.227 24.893 973.147 24.288 972.401 23.0781C971.654 21.8682 971.281 20.1198 971.281 17.8329C971.281 15.5593 971.654 13.8176 972.401 12.6077C973.147 11.3978 974.227 10.7928 975.64 10.7928ZM972.7 17.8329C972.7 19.455 972.847 20.7248 973.14 21.6422L977.58 12.8071C977.114 12.1822 976.467 11.8698 975.64 11.8698C974.72 11.8698 974 12.3617 973.48 13.3456C972.96 14.3162 972.7 15.812 972.7 17.8329ZM975.64 23.7961C976.574 23.7961 977.3 23.3108 977.82 22.3402C978.34 21.3563 978.6 19.8539 978.6 17.8329C978.6 16.1178 978.433 14.7882 978.1 13.8442L973.66 22.759C974.14 23.4504 974.8 23.7961 975.64 23.7961Z" fill="url(#paint89_linear_175_1867)"/>
<path d="M976.84 46.4293H979.78V47.4864H972.161V46.4293H975.56V35.221L972.321 37.1555L971.761 36.2581L975.76 33.785H976.84V46.4293Z" fill="url(#paint90_linear_175_1867)"/>
<path d="M976.84 69.2221H979.78V70.2792H972.161V69.2221H975.56V58.0138L972.321 59.9483L971.761 59.0509L975.76 56.5778H976.84V69.2221Z" fill="url(#paint91_linear_175_1867)"/>
<path d="M975.64 79.1712C977.067 79.1712 978.147 79.7762 978.88 80.9861C979.627 82.1827 980 83.9245 980 86.2113C980 88.4982 979.627 90.2466 978.88 91.4565C978.147 92.6664 977.067 93.2714 975.64 93.2714C974.227 93.2714 973.147 92.6664 972.401 91.4565C971.654 90.2466 971.281 88.4982 971.281 86.2113C971.281 83.9378 971.654 82.196 972.401 80.9861C973.147 79.7762 974.227 79.1712 975.64 79.1712ZM972.7 86.2113C972.7 87.8334 972.847 89.1032 973.14 90.0206L977.58 81.1855C977.114 80.5606 976.467 80.2482 975.64 80.2482C974.72 80.2482 974 80.7401 973.48 81.724C972.96 82.6946 972.7 84.1904 972.7 86.2113ZM975.64 92.1745C976.574 92.1745 977.3 91.6892 977.82 90.7186C978.34 89.7347 978.6 88.2323 978.6 86.2113C978.6 84.4962 978.433 83.1666 978.1 82.2226L973.66 91.1374C974.14 91.8288 974.8 92.1745 975.64 92.1745Z" fill="url(#paint92_linear_175_1867)"/>
<path d="M975.64 101.964C977.067 101.964 978.147 102.569 978.88 103.779C979.627 104.976 980 106.717 980 109.004C980 111.291 979.627 113.039 978.88 114.249C978.147 115.459 977.067 116.064 975.64 116.064C974.227 116.064 973.147 115.459 972.401 114.249C971.654 113.039 971.281 111.291 971.281 109.004C971.281 106.731 971.654 104.989 972.401 103.779C973.147 102.569 974.227 101.964 975.64 101.964ZM972.7 109.004C972.7 110.626 972.847 111.896 973.14 112.813L977.58 103.978C977.114 103.353 976.467 103.041 975.64 103.041C974.72 103.041 974 103.533 973.48 104.517C972.96 105.487 972.7 106.983 972.7 109.004ZM975.64 114.967C976.574 114.967 977.3 114.482 977.82 113.511C978.34 112.528 978.6 111.025 978.6 109.004C978.6 107.289 978.433 105.959 978.1 105.015L973.66 113.93C974.14 114.622 974.8 114.967 975.64 114.967Z" fill="url(#paint93_linear_175_1867)"/>
</g>
</g>
<defs>
<filter id="filter0_f_175_1867" x="-558.19" y="-698.19" width="2141.38" height="1500.38" filterUnits="userSpaceOnUse" color-interpolation-filters="sRGB">
<feFlood flood-opacity="0" result="BackgroundImageFix"/>
<feBlend mode="normal" in="SourceGraphic" in2="BackgroundImageFix" result="shape"/>
<feGaussianBlur stdDeviation="200.095" result="effect1_foregroundBlur_175_1867"/>
</filter>
<linearGradient id="paint0_linear_175_1867" x1="52.5" y1="288" x2="52.5" y2="599.381" gradientUnits="userSpaceOnUse">
<stop stop-color="#F7DD43"/>
<stop offset="1" stop-color="#F7DD43" stop-opacity="0"/>
</linearGradient>
<linearGradient id="paint1_linear_175_1867" x1="52.5" y1="288" x2="52.5" y2="599.381" gradientUnits="userSpaceOnUse">
<stop stop-color="#F7DD43"/>
<stop offset="1" stop-color="#F7DD43" stop-opacity="0"/>
</linearGradient>
<linearGradient id="paint2_linear_175_1867" x1="52.5" y1="288" x2="52.5" y2="599.381" gradientUnits="userSpaceOnUse">
<stop stop-color="#F7DD43"/>
<stop offset="1" stop-color="#F7DD43" stop-opacity="0"/>
</linearGradient>
<linearGradient id="paint3_linear_175_1867" x1="52.5" y1="288" x2="52.5" y2="599.381" gradientUnits="userSpaceOnUse">
<stop stop-color="#F7DD43"/>
<stop offset="1" stop-color="#F7DD43" stop-opacity="0"/>
</linearGradient>
<linearGradient id="paint4_linear_175_1867" x1="52.5" y1="288" x2="52.5" y2="599.381" gradientUnits="userSpaceOnUse">
<stop stop-color="#F7DD43"/>
<stop offset="1" stop-color="#F7DD43" stop-opacity="0"/>
</linearGradient>
<linearGradient id="paint5_linear_175_1867" x1="52.5" y1="288" x2="52.5" y2="599.381" gradientUnits="userSpaceOnUse">
<stop stop-color="#F7DD43"/>
<stop offset="1" stop-color="#F7DD43" stop-opacity="0"/>
</linearGradient>
<linearGradient id="paint6_linear_175_1867" x1="52.5" y1="288" x2="52.5" y2="599.381" gradientUnits="userSpaceOnUse">
<stop stop-color="#F7DD43"/>
<stop offset="1" stop-color="#F7DD43" stop-opacity="0"/>
</linearGradient>
<linearGradient id="paint7_linear_175_1867" x1="52.5" y1="288" x2="52.5" y2="599.381" gradientUnits="userSpaceOnUse">
<stop stop-color="#F7DD43"/>
<stop offset="1" stop-color="#F7DD43" stop-opacity="0"/>
</linearGradient>
<linearGradient id="paint8_linear_175_1867" x1="52.5" y1="288" x2="52.5" y2="599.381" gradientUnits="userSpaceOnUse">
<stop stop-color="#F7DD43"/>
<stop offset="1" stop-color="#F7DD43" stop-opacity="0"/>
</linearGradient>
<linearGradient id="paint9_linear_175_1867" x1="52.5" y1="288" x2="52.5" y2="599.381" gradientUnits="userSpaceOnUse">
<stop stop-color="#F7DD43"/>
<stop offset="1" stop-color="#F7DD43" stop-opacity="0"/>
</linearGradient>
<linearGradient id="paint10_linear_175_1867" x1="52.5" y1="288" x2="52.5" y2="599.381" gradientUnits="userSpaceOnUse">
<stop stop-color="#F7DD43"/>
<stop offset="1" stop-color="#F7DD43" stop-opacity="0"/>
</linearGradient>
<linearGradient id="paint11_linear_175_1867" x1="52.5" y1="288" x2="52.5" y2="599.381" gradientUnits="userSpaceOnUse">
<stop stop-color="#F7DD43"/>
<stop offset="1" stop-color="#F7DD43" stop-opacity="0"/>
</linearGradient>
<linearGradient id="paint12_linear_175_1867" x1="52.5" y1="288" x2="52.5" y2="599.381" gradientUnits="userSpaceOnUse">
<stop stop-color="#F7DD43"/>
<stop offset="1" stop-color="#F7DD43" stop-opacity="0"/>
</linearGradient>
<linearGradient id="paint13_linear_175_1867" x1="52.5" y1="288" x2="52.5" y2="599.381" gradientUnits="userSpaceOnUse">
<stop stop-color="#F7DD43"/>
<stop offset="1" stop-color="#F7DD43" stop-opacity="0"/>
</linearGradient>
<linearGradient id="paint14_linear_175_1867" x1="52.5" y1="288" x2="52.5" y2="599.381" gradientUnits="userSpaceOnUse">
<stop stop-color="#F7DD43"/>
<stop offset="1" stop-color="#F7DD43" stop-opacity="0"/>
</linearGradient>
<linearGradient id="paint15_linear_175_1867" x1="52.5" y1="288" x2="52.5" y2="599.381" gradientUnits="userSpaceOnUse">
<stop stop-color="#F7DD43"/>
<stop offset="1" stop-color="#F7DD43" stop-opacity="0"/>
</linearGradient>
<linearGradient id="paint16_linear_175_1867" x1="52.5" y1="288" x2="52.5" y2="599.381" gradientUnits="userSpaceOnUse">
<stop stop-color="#F7DD43"/>
<stop offset="1" stop-color="#F7DD43" stop-opacity="0"/>
</linearGradient>
<linearGradient id="paint17_linear_175_1867" x1="52.5" y1="288" x2="52.5" y2="599.381" gradientUnits="userSpaceOnUse">
<stop stop-color="#F7DD43"/>
<stop offset="1" stop-color="#F7DD43" stop-opacity="0"/>
</linearGradient>
<linearGradient id="paint18_linear_175_1867" x1="52.5" y1="288" x2="52.5" y2="599.381" gradientUnits="userSpaceOnUse">
<stop stop-color="#F7DD43"/>
<stop offset="1" stop-color="#F7DD43" stop-opacity="0"/>
</linearGradient>
<linearGradient id="paint19_linear_175_1867" x1="52.5" y1="288" x2="52.5" y2="599.381" gradientUnits="userSpaceOnUse">
<stop stop-color="#F7DD43"/>
<stop offset="1" stop-color="#F7DD43" stop-opacity="0"/>
</linearGradient>
<linearGradient id="paint20_linear_175_1867" x1="52.5" y1="288" x2="52.5" y2="599.381" gradientUnits="userSpaceOnUse">
<stop stop-color="#F7DD43"/>
<stop offset="1" stop-color="#F7DD43" stop-opacity="0"/>
</linearGradient>
<linearGradient id="paint21_linear_175_1867" x1="52.5" y1="288" x2="52.5" y2="599.381" gradientUnits="userSpaceOnUse">
<stop stop-color="#F7DD43"/>
<stop offset="1" stop-color="#F7DD43" stop-opacity="0"/>
</linearGradient>
<linearGradient id="paint22_linear_175_1867" x1="52.5" y1="288" x2="52.5" y2="599.381" gradientUnits="userSpaceOnUse">
<stop stop-color="#F7DD43"/>
<stop offset="1" stop-color="#F7DD43" stop-opacity="0"/>
</linearGradient>
<linearGradient id="paint23_linear_175_1867" x1="52.5" y1="288" x2="52.5" y2="599.381" gradientUnits="userSpaceOnUse">
<stop stop-color="#F7DD43"/>
<stop offset="1" stop-color="#F7DD43" stop-opacity="0"/>
</linearGradient>
<linearGradient id="paint24_linear_175_1867" x1="52.5" y1="288" x2="52.5" y2="599.381" gradientUnits="userSpaceOnUse">
<stop stop-color="#F7DD43"/>
<stop offset="1" stop-color="#F7DD43" stop-opacity="0"/>
</linearGradient>
<linearGradient id="paint25_linear_175_1867" x1="52.5" y1="288" x2="52.5" y2="599.381" gradientUnits="userSpaceOnUse">
<stop stop-color="#F7DD43"/>
<stop offset="1" stop-color="#F7DD43" stop-opacity="0"/>
</linearGradient>
<linearGradient id="paint26_linear_175_1867" x1="52.5" y1="288" x2="52.5" y2="599.381" gradientUnits="userSpaceOnUse">
<stop stop-color="#F7DD43"/>
<stop offset="1" stop-color="#F7DD43" stop-opacity="0"/>
</linearGradient>
<linearGradient id="paint27_linear_175_1867" x1="52.5" y1="288" x2="52.5" y2="599.381" gradientUnits="userSpaceOnUse">
<stop stop-color="#F7DD43"/>
<stop offset="1" stop-color="#F7DD43" stop-opacity="0"/>
</linearGradient>
<linearGradient id="paint28_linear_175_1867" x1="52.5" y1="288" x2="52.5" y2="599.381" gradientUnits="userSpaceOnUse">
<stop stop-color="#F7DD43"/>
<stop offset="1" stop-color="#F7DD43" stop-opacity="0"/>
</linearGradient>
<linearGradient id="paint29_linear_175_1867" x1="52.5" y1="288" x2="52.5" y2="599.381" gradientUnits="userSpaceOnUse">
<stop stop-color="#F7DD43"/>
<stop offset="1" stop-color="#F7DD43" stop-opacity="0"/>
</linearGradient>
<linearGradient id="paint30_linear_175_1867" x1="52.5" y1="288" x2="52.5" y2="599.381" gradientUnits="userSpaceOnUse">
<stop stop-color="#F7DD43"/>
<stop offset="1" stop-color="#F7DD43" stop-opacity="0"/>
</linearGradient>
<linearGradient id="paint31_linear_175_1867" x1="52.5" y1="288" x2="52.5" y2="599.381" gradientUnits="userSpaceOnUse">
<stop stop-color="#F7DD43"/>
<stop offset="1" stop-color="#F7DD43" stop-opacity="0"/>
</linearGradient>
<linearGradient id="paint32_linear_175_1867" x1="52.5" y1="288" x2="52.5" y2="599.381" gradientUnits="userSpaceOnUse">
<stop stop-color="#F7DD43"/>
<stop offset="1" stop-color="#F7DD43" stop-opacity="0"/>
</linearGradient>
<linearGradient id="paint33_linear_175_1867" x1="52.5" y1="288" x2="52.5" y2="599.381" gradientUnits="userSpaceOnUse">
<stop stop-color="#F7DD43"/>
<stop offset="1" stop-color="#F7DD43" stop-opacity="0"/>
</linearGradient>
<linearGradient id="paint34_linear_175_1867" x1="52.5" y1="288" x2="52.5" y2="599.381" gradientUnits="userSpaceOnUse">
<stop stop-color="#F7DD43"/>
<stop offset="1" stop-color="#F7DD43" stop-opacity="0"/>
</linearGradient>
<linearGradient id="paint35_linear_175_1867" x1="52.5" y1="288" x2="52.5" y2="599.381" gradientUnits="userSpaceOnUse">
<stop stop-color="#F7DD43"/>
<stop offset="1" stop-color="#F7DD43" stop-opacity="0"/>
</linearGradient>
<linearGradient id="paint36_linear_175_1867" x1="52.5" y1="288" x2="52.5" y2="599.381" gradientUnits="userSpaceOnUse">
<stop stop-color="#F7DD43"/>
<stop offset="1" stop-color="#F7DD43" stop-opacity="0"/>
</linearGradient>
<linearGradient id="paint37_linear_175_1867" x1="52.5" y1="288" x2="52.5" y2="599.381" gradientUnits="userSpaceOnUse">
<stop stop-color="#F7DD43"/>
<stop offset="1" stop-color="#F7DD43" stop-opacity="0"/>
</linearGradient>
<linearGradient id="paint38_linear_175_1867" x1="52.5" y1="288" x2="52.5" y2="599.381" gradientUnits="userSpaceOnUse">
<stop stop-color="#F7DD43"/>
<stop offset="1" stop-color="#F7DD43" stop-opacity="0"/>
</linearGradient>
<linearGradient id="paint39_linear_175_1867" x1="52.5" y1="288" x2="52.5" y2="599.381" gradientUnits="userSpaceOnUse">
<stop stop-color="#F7DD43"/>
<stop offset="1" stop-color="#F7DD43" stop-opacity="0"/>
</linearGradient>
<linearGradient id="paint40_linear_175_1867" x1="52.5" y1="288" x2="52.5" y2="599.381" gradientUnits="userSpaceOnUse">
<stop stop-color="#F7DD43"/>
<stop offset="1" stop-color="#F7DD43" stop-opacity="0"/>
</linearGradient>
<linearGradient id="paint41_linear_175_1867" x1="52.5" y1="288" x2="52.5" y2="599.381" gradientUnits="userSpaceOnUse">
<stop stop-color="#F7DD43"/>
<stop offset="1" stop-color="#F7DD43" stop-opacity="0"/>
</linearGradient>
<linearGradient id="paint42_linear_175_1867" x1="52.5" y1="288" x2="52.5" y2="599.381" gradientUnits="userSpaceOnUse">
<stop stop-color="#F7DD43"/>
<stop offset="1" stop-color="#F7DD43" stop-opacity="0"/>
</linearGradient>
<linearGradient id="paint43_linear_175_1867" x1="52.5" y1="288" x2="52.5" y2="599.381" gradientUnits="userSpaceOnUse">
<stop stop-color="#F7DD43"/>
<stop offset="1" stop-color="#F7DD43" stop-opacity="0"/>
</linearGradient>
<linearGradient id="paint44_linear_175_1867" x1="52.5" y1="288" x2="52.5" y2="599.381" gradientUnits="userSpaceOnUse">
<stop stop-color="#F7DD43"/>
<stop offset="1" stop-color="#F7DD43" stop-opacity="0"/>
</linearGradient>
<linearGradient id="paint45_linear_175_1867" x1="52.5" y1="288" x2="52.5" y2="599.381" gradientUnits="userSpaceOnUse">
<stop stop-color="#F7DD43"/>
<stop offset="1" stop-color="#F7DD43" stop-opacity="0"/>
</linearGradient>
<linearGradient id="paint46_linear_175_1867" x1="52.5" y1="288" x2="52.5" y2="599.381" gradientUnits="userSpaceOnUse">
<stop stop-color="#F7DD43"/>
<stop offset="1" stop-color="#F7DD43" stop-opacity="0"/>
</linearGradient>
<linearGradient id="paint47_linear_175_1867" x1="938.5" y1="-12" x2="938.5" y2="286.818" gradientUnits="userSpaceOnUse">
<stop stop-color="#F7DD43"/>
<stop offset="1" stop-color="#F7DD43" stop-opacity="0"/>
</linearGradient>
<linearGradient id="paint48_linear_175_1867" x1="938.5" y1="-12" x2="938.5" y2="286.818" gradientUnits="userSpaceOnUse">
<stop stop-color="#F7DD43"/>
<stop offset="1" stop-color="#F7DD43" stop-opacity="0"/>
</linearGradient>
<linearGradient id="paint49_linear_175_1867" x1="938.5" y1="-12" x2="938.5" y2="286.818" gradientUnits="userSpaceOnUse">
<stop stop-color="#F7DD43"/>
<stop offset="1" stop-color="#F7DD43" stop-opacity="0"/>
</linearGradient>
<linearGradient id="paint50_linear_175_1867" x1="938.5" y1="-12" x2="938.5" y2="286.818" gradientUnits="userSpaceOnUse">
<stop stop-color="#F7DD43"/>
<stop offset="1" stop-color="#F7DD43" stop-opacity="0"/>
</linearGradient>
<linearGradient id="paint51_linear_175_1867" x1="938.5" y1="-12" x2="938.5" y2="286.818" gradientUnits="userSpaceOnUse">
<stop stop-color="#F7DD43"/>
<stop offset="1" stop-color="#F7DD43" stop-opacity="0"/>
</linearGradient>
<linearGradient id="paint52_linear_175_1867" x1="938.5" y1="-12" x2="938.5" y2="286.818" gradientUnits="userSpaceOnUse">
<stop stop-color="#F7DD43"/>
<stop offset="1" stop-color="#F7DD43" stop-opacity="0"/>
</linearGradient>
<linearGradient id="paint53_linear_175_1867" x1="938.5" y1="-12" x2="938.5" y2="286.818" gradientUnits="userSpaceOnUse">
<stop stop-color="#F7DD43"/>
<stop offset="1" stop-color="#F7DD43" stop-opacity="0"/>
</linearGradient>
<linearGradient id="paint54_linear_175_1867" x1="938.5" y1="-12" x2="938.5" y2="286.818" gradientUnits="userSpaceOnUse">
<stop stop-color="#F7DD43"/>
<stop offset="1" stop-color="#F7DD43" stop-opacity="0"/>
</linearGradient>
<linearGradient id="paint55_linear_175_1867" x1="938.5" y1="-12" x2="938.5" y2="286.818" gradientUnits="userSpaceOnUse">
<stop stop-color="#F7DD43"/>
<stop offset="1" stop-color="#F7DD43" stop-opacity="0"/>
</linearGradient>
<linearGradient id="paint56_linear_175_1867" x1="938.5" y1="-12" x2="938.5" y2="286.818" gradientUnits="userSpaceOnUse">
<stop stop-color="#F7DD43"/>
<stop offset="1" stop-color="#F7DD43" stop-opacity="0"/>
</linearGradient>
<linearGradient id="paint57_linear_175_1867" x1="938.5" y1="-12" x2="938.5" y2="286.818" gradientUnits="userSpaceOnUse">
<stop stop-color="#F7DD43"/>
<stop offset="1" stop-color="#F7DD43" stop-opacity="0"/>
</linearGradient>
<linearGradient id="paint58_linear_175_1867" x1="938.5" y1="-12" x2="938.5" y2="286.818" gradientUnits="userSpaceOnUse">
<stop stop-color="#F7DD43"/>
<stop offset="1" stop-color="#F7DD43" stop-opacity="0"/>
</linearGradient>
<linearGradient id="paint59_linear_175_1867" x1="938.5" y1="-12" x2="938.5" y2="286.818" gradientUnits="userSpaceOnUse">
<stop stop-color="#F7DD43"/>
<stop offset="1" stop-color="#F7DD43" stop-opacity="0"/>
</linearGradient>
<linearGradient id="paint60_linear_175_1867" x1="938.5" y1="-12" x2="938.5" y2="286.818" gradientUnits="userSpaceOnUse">
<stop stop-color="#F7DD43"/>
<stop offset="1" stop-color="#F7DD43" stop-opacity="0"/>
</linearGradient>
<linearGradient id="paint61_linear_175_1867" x1="938.5" y1="-12" x2="938.5" y2="286.818" gradientUnits="userSpaceOnUse">
<stop stop-color="#F7DD43"/>
<stop offset="1" stop-color="#F7DD43" stop-opacity="0"/>
</linearGradient>
<linearGradient id="paint62_linear_175_1867" x1="938.5" y1="-12" x2="938.5" y2="286.818" gradientUnits="userSpaceOnUse">
<stop stop-color="#F7DD43"/>
<stop offset="1" stop-color="#F7DD43" stop-opacity="0"/>
</linearGradient>
<linearGradient id="paint63_linear_175_1867" x1="938.5" y1="-12" x2="938.5" y2="286.818" gradientUnits="userSpaceOnUse">
<stop stop-color="#F7DD43"/>
<stop offset="1" stop-color="#F7DD43" stop-opacity="0"/>
</linearGradient>
<linearGradient id="paint64_linear_175_1867" x1="938.5" y1="-12" x2="938.5" y2="286.818" gradientUnits="userSpaceOnUse">
<stop stop-color="#F7DD43"/>
<stop offset="1" stop-color="#F7DD43" stop-opacity="0"/>
</linearGradient>
<linearGradient id="paint65_linear_175_1867" x1="938.5" y1="-12" x2="938.5" y2="286.818" gradientUnits="userSpaceOnUse">
<stop stop-color="#F7DD43"/>
<stop offset="1" stop-color="#F7DD43" stop-opacity="0"/>
</linearGradient>
<linearGradient id="paint66_linear_175_1867" x1="938.5" y1="-12" x2="938.5" y2="286.818" gradientUnits="userSpaceOnUse">
<stop stop-color="#F7DD43"/>
<stop offset="1" stop-color="#F7DD43" stop-opacity="0"/>
</linearGradient>
<linearGradient id="paint67_linear_175_1867" x1="938.5" y1="-12" x2="938.5" y2="286.818" gradientUnits="userSpaceOnUse">
<stop stop-color="#F7DD43"/>
<stop offset="1" stop-color="#F7DD43" stop-opacity="0"/>
</linearGradient>
<linearGradient id="paint68_linear_175_1867" x1="938.5" y1="-12" x2="938.5" y2="286.818" gradientUnits="userSpaceOnUse">
<stop stop-color="#F7DD43"/>
<stop offset="1" stop-color="#F7DD43" stop-opacity="0"/>
</linearGradient>
<linearGradient id="paint69_linear_175_1867" x1="938.5" y1="-12" x2="938.5" y2="286.818" gradientUnits="userSpaceOnUse">
<stop stop-color="#F7DD43"/>
<stop offset="1" stop-color="#F7DD43" stop-opacity="0"/>
</linearGradient>
<linearGradient id="paint70_linear_175_1867" x1="938.5" y1="-12" x2="938.5" y2="286.818" gradientUnits="userSpaceOnUse">
<stop stop-color="#F7DD43"/>
<stop offset="1" stop-color="#F7DD43" stop-opacity="0"/>
</linearGradient>
<linearGradient id="paint71_linear_175_1867" x1="938.5" y1="-12" x2="938.5" y2="286.818" gradientUnits="userSpaceOnUse">
<stop stop-color="#F7DD43"/>
<stop offset="1" stop-color="#F7DD43" stop-opacity="0"/>
</linearGradient>
<linearGradient id="paint72_linear_175_1867" x1="938.5" y1="-12" x2="938.5" y2="286.818" gradientUnits="userSpaceOnUse">
<stop stop-color="#F7DD43"/>
<stop offset="1" stop-color="#F7DD43" stop-opacity="0"/>
</linearGradient>
<linearGradient id="paint73_linear_175_1867" x1="938.5" y1="-12" x2="938.5" y2="286.818" gradientUnits="userSpaceOnUse">
<stop stop-color="#F7DD43"/>
<stop offset="1" stop-color="#F7DD43" stop-opacity="0"/>
</linearGradient>
<linearGradient id="paint74_linear_175_1867" x1="938.5" y1="-12" x2="938.5" y2="286.818" gradientUnits="userSpaceOnUse">
<stop stop-color="#F7DD43"/>
<stop offset="1" stop-color="#F7DD43" stop-opacity="0"/>
</linearGradient>
<linearGradient id="paint75_linear_175_1867" x1="938.5" y1="-12" x2="938.5" y2="286.818" gradientUnits="userSpaceOnUse">
<stop stop-color="#F7DD43"/>
<stop offset="1" stop-color="#F7DD43" stop-opacity="0"/>
</linearGradient>
<linearGradient id="paint76_linear_175_1867" x1="938.5" y1="-12" x2="938.5" y2="286.818" gradientUnits="userSpaceOnUse">
<stop stop-color="#F7DD43"/>
<stop offset="1" stop-color="#F7DD43" stop-opacity="0"/>
</linearGradient>
<linearGradient id="paint77_linear_175_1867" x1="938.5" y1="-12" x2="938.5" y2="286.818" gradientUnits="userSpaceOnUse">
<stop stop-color="#F7DD43"/>
<stop offset="1" stop-color="#F7DD43" stop-opacity="0"/>
</linearGradient>
<linearGradient id="paint78_linear_175_1867" x1="938.5" y1="-12" x2="938.5" y2="286.818" gradientUnits="userSpaceOnUse">
<stop stop-color="#F7DD43"/>
<stop offset="1" stop-color="#F7DD43" stop-opacity="0"/>
</linearGradient>
<linearGradient id="paint79_linear_175_1867" x1="938.5" y1="-12" x2="938.5" y2="286.818" gradientUnits="userSpaceOnUse">
<stop stop-color="#F7DD43"/>
<stop offset="1" stop-color="#F7DD43" stop-opacity="0"/>
</linearGradient>
<linearGradient id="paint80_linear_175_1867" x1="938.5" y1="-12" x2="938.5" y2="286.818" gradientUnits="userSpaceOnUse">
<stop stop-color="#F7DD43"/>
<stop offset="1" stop-color="#F7DD43" stop-opacity="0"/>
</linearGradient>
<linearGradient id="paint81_linear_175_1867" x1="938.5" y1="-12" x2="938.5" y2="286.818" gradientUnits="userSpaceOnUse">
<stop stop-color="#F7DD43"/>
<stop offset="1" stop-color="#F7DD43" stop-opacity="0"/>
</linearGradient>
<linearGradient id="paint82_linear_175_1867" x1="938.5" y1="-12" x2="938.5" y2="286.818" gradientUnits="userSpaceOnUse">
<stop stop-color="#F7DD43"/>
<stop offset="1" stop-color="#F7DD43" stop-opacity="0"/>
</linearGradient>
<linearGradient id="paint83_linear_175_1867" x1="938.5" y1="-12" x2="938.5" y2="286.818" gradientUnits="userSpaceOnUse">
<stop stop-color="#F7DD43"/>
<stop offset="1" stop-color="#F7DD43" stop-opacity="0"/>
</linearGradient>
<linearGradient id="paint84_linear_175_1867" x1="938.5" y1="-12" x2="938.5" y2="286.818" gradientUnits="userSpaceOnUse">
<stop stop-color="#F7DD43"/>
<stop offset="1" stop-color="#F7DD43" stop-opacity="0"/>
</linearGradient>
<linearGradient id="paint85_linear_175_1867" x1="938.5" y1="-12" x2="938.5" y2="286.818" gradientUnits="userSpaceOnUse">
<stop stop-color="#F7DD43"/>
<stop offset="1" stop-color="#F7DD43" stop-opacity="0"/>
</linearGradient>
<linearGradient id="paint86_linear_175_1867" x1="938.5" y1="-12" x2="938.5" y2="286.818" gradientUnits="userSpaceOnUse">
<stop stop-color="#F7DD43"/>
<stop offset="1" stop-color="#F7DD43" stop-opacity="0"/>
</linearGradient>
<linearGradient id="paint87_linear_175_1867" x1="938.5" y1="-12" x2="938.5" y2="286.818" gradientUnits="userSpaceOnUse">
<stop stop-color="#F7DD43"/>
<stop offset="1" stop-color="#F7DD43" stop-opacity="0"/>
</linearGradient>
<linearGradient id="paint88_linear_175_1867" x1="938.5" y1="-12" x2="938.5" y2="286.818" gradientUnits="userSpaceOnUse">
<stop stop-color="#F7DD43"/>
<stop offset="1" stop-color="#F7DD43" stop-opacity="0"/>
</linearGradient>
<linearGradient id="paint89_linear_175_1867" x1="938.5" y1="-12" x2="938.5" y2="286.818" gradientUnits="userSpaceOnUse">
<stop stop-color="#F7DD43"/>
<stop offset="1" stop-color="#F7DD43" stop-opacity="0"/>
</linearGradient>
<linearGradient id="paint90_linear_175_1867" x1="938.5" y1="-12" x2="938.5" y2="286.818" gradientUnits="userSpaceOnUse">
<stop stop-color="#F7DD43"/>
<stop offset="1" stop-color="#F7DD43" stop-opacity="0"/>
</linearGradient>
<linearGradient id="paint91_linear_175_1867" x1="938.5" y1="-12" x2="938.5" y2="286.818" gradientUnits="userSpaceOnUse">
<stop stop-color="#F7DD43"/>
<stop offset="1" stop-color="#F7DD43" stop-opacity="0"/>
</linearGradient>
<linearGradient id="paint92_linear_175_1867" x1="938.5" y1="-12" x2="938.5" y2="286.818" gradientUnits="userSpaceOnUse">
<stop stop-color="#F7DD43"/>
<stop offset="1" stop-color="#F7DD43" stop-opacity="0"/>
</linearGradient>
<linearGradient id="paint93_linear_175_1867" x1="938.5" y1="-12" x2="938.5" y2="286.818" gradientUnits="userSpaceOnUse">
<stop stop-color="#F7DD43"/>
<stop offset="1" stop-color="#F7DD43" stop-opacity="0"/>
</linearGradient>
<clipPath id="clip0_175_1867">
<rect width="1024" height="753" fill="white"/>
</clipPath>
</defs>
</svg>
